<svg width="800px" height="800px" viewBox="0 0 24 24" fill="none" xmlns="http://www.w3.org/2000/svg">

<path d="M17 18.9999C18.2496 18.9715 19.4432 18.4759 20.3456 17.611C21.2481 16.7462 21.7939 15.5746 21.8754 14.3273C21.957 13.0801 21.5684 11.8475 20.7863 10.8725C20.0042 9.89749 18.8852 9.25073 17.65 9.05975C17.1768 7.73466 16.2529 6.61822 15.0399 5.90521C13.8269 5.19221 12.4019 4.92799 11.0139 5.15912C9.62597 5.39024 8.36341 6.102 7.4469 7.16962C6.53039 8.23724 6.01826 9.59301 6 10.9999C4.93913 10.9999 3.92172 11.4212 3.17157 12.1713C2.42142 12.9215 2 13.9391 2 14.9999C2 16.0608 2.42142 17.0782 3.17157 17.8283C3.92172 18.5785 4.93913 18.9999 6 18.9999H17Z" stroke="#0066ff" stroke-width="1.5" stroke-linecap="round" stroke-linejoin="round"/>

</svg>
